PathFileType	4	(X/Y/Z)	D:\TRACE\spotREDO_2-26-24\spot_justArm_Motion_3_1-v60.trc
DataRate	CameraRate	NumFrames	NumMarkers	Units	OrigDataRate	OrigDataStartFrame	OrigNumFrames
100.00	100.00	      28	9	mm	100.00	6126	      7000
Frame#	Time	front left toe			Front right toe			aft left toe			aft right toe			Arm			FL body			FR body			AL Body			AR Body			
		X1	Y1	Z1	X2	Y2	Z2	X3	Y3	Z3	X4	Y4	Z4	X5	Y5	Z5	X6	Y6	Z6	X7	Y7	Z7	X8	Y8	Z8	X9	Y9	Z9	

6126	61.250	-220.22571	22.68233	-167.15089	202.48776	23.22285	-166.50703	-199.45445	14.27612	463.73468	214.79092	17.68417	425.70438	-42.41254	649.46655	-829.23425	-82.08702	559.26135	-218.44070	73.40792	564.17944	-225.54079	-52.75585	547.24591	664.25659	95.65440	547.53577	660.33478	
6127	61.260	-220.09125	22.78206	-167.24246	202.58179	23.11460	-166.47118	-199.07079	14.59833	463.59570	214.90776	17.93469	425.67825	-42.22330	649.63574	-829.40228	-82.13391	559.33661	-218.74226	73.74540	564.14386	-225.66095	-52.60784	547.36945	664.16779	95.82846	547.79419	660.10083	
6128	61.270	-219.90900	22.77220	-167.35524	203.09050	23.09351	-166.45813	-198.84370	14.69514	463.55630	215.35370	18.28094	425.58743	-41.85103	649.68018	-829.53363	-81.77046	559.20258	-218.82893	74.00373	564.10638	-225.86429	-52.43461	547.50848	664.06274	95.90755	548.08771	659.95190	
6129	61.280	-219.56172	22.67737	-167.54318	203.34239	23.08935	-166.60616	-198.58290	14.92424	463.46527	215.40408	18.39512	425.53671	-41.62739	649.74481	-829.65454	-81.45039	559.21338	-218.95590	74.24905	564.36713	-226.19980	-52.12577	547.63873	663.94354	96.85176	548.17688	660.49866	
6130	61.290	-219.37671	22.60328	-167.61870	203.41595	22.98386	-166.69054	-198.36554	15.18905	463.37576	215.46129	18.50230	425.51395	-40.61105	649.71869	-829.08624	-80.50731	559.02258	-219.20911	74.48476	564.03339	-226.15163	-51.67646	547.81366	663.75372	96.68520	548.26752	659.80933	
6131	61.300	-219.20242	22.52223	-167.71382	203.59149	22.99976	-166.69946	-198.21645	15.40387	463.31122	215.69012	18.70868	425.47415	-41.05886	649.57587	-829.78497	-80.74606	559.05823	-219.21613	74.80007	563.93091	-226.24382	-51.30993	548.07635	663.65753	96.97347	548.37061	659.71497	
6132	61.310	-218.98921	22.45388	-167.76711	203.85130	22.86647	-166.81461	-198.15242	15.53087	463.27182	215.92064	18.90292	425.36688	-40.78314	649.46814	-829.79706	-80.53285	559.00726	-219.29210	75.09969	563.88629	-226.36096	-51.12467	548.26068	663.51807	97.21613	548.43707	659.57452	
6133	61.320	-218.90054	22.46111	-167.77385	204.03366	22.78459	-166.94235	-198.01567	15.76776	463.22296	216.43085	19.23499	425.32083	-40.41252	649.41144	-830.00433	-80.30923	558.96960	-219.31404	75.37093	563.83783	-226.49333	-50.96438	548.46033	663.45929	97.31297	548.63837	659.45215	
6134	61.330	-218.75455	22.39937	-167.80418	204.00975	22.76901	-167.06198	-197.82091	16.12314	463.15497	216.80635	19.51821	425.30466	-40.16053	649.38947	-830.04980	-80.06976	558.93256	-219.38187	75.61071	563.81970	-226.66862	-50.45900	548.46259	663.27911	97.40776	549.01746	659.33142	
6135	61.340	-218.48814	22.29653	-167.80550	204.10670	22.64362	-167.20480	-197.62648	16.24559	463.16571	217.18219	19.75255	425.27573	-39.93044	649.38220	-830.18469	-79.86472	558.80884	-219.45503	75.94439	563.64935	-226.68124	-50.36288	548.62634	663.24591	97.67045	549.31152	659.23639	
6136	61.350	-218.28000	22.24980	-167.84763	204.29517	22.28875	-167.32494	-197.49451	16.44580	463.14273	217.24431	19.81625	425.20337	-39.61576	649.54517	-829.98163	-79.47170	558.58746	-219.69580	76.27346	563.43939	-226.77699	-50.01532	549.03192	663.03711	98.12173	549.62616	659.27264	
6137	61.360	-218.08084	22.19452	-167.91011	204.50945	22.17478	-167.37471	-197.34431	16.66363	462.99200	217.34052	19.87013	425.20520	-38.37775	649.80426	-828.80426	-79.22024	558.44495	-219.81357	76.51639	563.20007	-226.85612	-50.16169	549.56976	663.01355	98.37831	549.91949	659.21698	
6138	61.370	-217.96202	22.13475	-167.93549	204.72054	22.02225	-167.36258	-197.14001	16.80734	462.94055	217.39459	19.93635	425.20923	-39.39067	649.46008	-830.39813	-78.93780	558.29248	-220.00523	76.73381	563.09619	-227.01842	-49.80578	549.76117	662.84821	98.70535	549.99536	659.22650	
6139	61.380	-217.77663	22.08767	-168.01343	205.00110	21.93046	-167.39395	-196.86041	16.89853	462.94897	217.43495	19.98033	425.13675	-39.15266	649.43512	-830.52362	-78.74226	558.22150	-220.16226	77.00128	562.99768	-227.19397	-49.27721	549.83618	662.73254	99.10708	550.09827	658.93219	
6140	61.390	-217.70854	22.08764	-168.05580	205.14008	21.84967	-167.49377	-196.74579	16.95221	462.94910	217.48927	20.02832	425.07785	-38.88090	649.26154	-830.49792	-78.48315	558.10083	-220.26900	77.25188	562.92126	-227.37119	-48.88503	549.95630	662.59430	99.32439	550.27997	658.75647	
6141	61.400	-217.54266	22.01777	-168.15097	205.44850	21.85083	-167.46954	-196.54979	17.10781	462.95178	217.71016	20.14233	424.99969	-38.79156	649.47205	-830.65521	-78.29990	558.10565	-220.38338	77.47330	562.90436	-227.49847	-48.70731	550.05426	662.49707	99.45339	550.39417	658.70215	
6142	61.410	-217.35844	22.01719	-168.20680	205.64804	21.71973	-167.55742	-196.27185	17.37059	462.73129	217.91733	20.28821	424.95862	-38.63728	649.57220	-830.77740	-78.19421	558.02185	-220.52623	77.58429	562.81091	-227.58012	-48.47196	550.30048	662.37030	99.67941	550.53943	658.52338	
6143	61.420	-217.16663	21.88722	-168.27032	205.66562	21.67599	-167.58467	-196.14842	17.44860	462.71732	217.90608	20.38216	424.87347	-37.26931	649.65875	-829.75574	-77.99075	557.88275	-220.56102	77.72274	562.67621	-227.65747	-48.39436	550.56335	662.28632	99.90424	550.80975	658.38812	
6144	61.430	-216.92831	21.78033	-168.33717	205.66574	21.57780	-167.62039	-195.90286	17.52425	462.72162	217.98866	20.49276	424.69556	-38.40638	649.75146	-830.92426	-77.82532	557.78333	-220.69115	77.87455	562.50244	-227.72296	-48.28937	550.77948	662.22815	100.10877	550.95020	658.26208	
6145	61.440	-216.78908	21.74653	-168.37932	205.78613	21.61766	-167.58780	-195.73288	17.76395	462.62231	218.02202	20.53760	424.65125	-38.41319	649.76447	-830.96185	-77.62798	557.57788	-220.79482	78.14982	562.29291	-227.75496	-47.76194	550.79578	662.00397	100.54870	551.26593	658.21979	
6146	61.450	-216.72992	21.72539	-168.41470	205.83197	21.62527	-167.62856	-195.62466	17.95881	462.54559	218.07059	20.57060	424.54291	-37.93485	649.56610	-831.00586	-77.24702	557.38544	-220.85861	78.37604	562.15045	-227.82220	-47.49759	550.88214	661.97559	100.76829	551.41400	658.18152	
6147	61.460	-216.69681	21.73992	-168.85345	205.90224	21.54485	-167.67497	-195.54807	18.09768	462.47226	218.21188	20.63056	424.48495	-37.73788	649.52802	-831.09955	-77.05884	557.27814	-220.93224	78.55840	562.03857	-227.91591	-47.31301	550.98627	661.95459	100.94102	551.47827	658.10413	
6148	61.470	-216.59686	21.69044	-168.90239	206.02155	21.55754	-167.70924	-195.50916	18.16119	462.43884	218.26303	20.66686	424.41098	-37.54953	649.56714	-831.18793	-76.86417	557.19971	-220.98479	78.72967	562.01306	-227.99196	-47.56476	551.31659	662.10907	101.01048	551.53381	658.03656	
6149	61.480	-216.54732	21.67221	-168.90756	206.11603	21.50795	-167.74510	-195.50337	18.17489	462.41754	218.51590	20.76599	424.42795	-37.49964	649.64740	-831.24603	-76.77949	557.20703	-221.02141	78.84978	561.95441	-228.04295	-47.42507	551.38513	662.05426	101.09291	551.54663	658.01312	
6150	61.490	-216.40849	21.60938	-168.99147	206.38232	21.66037	-167.64944	-195.49232	18.25376	462.40167	218.63667	20.85122	424.46127	-35.90511	649.85095	-829.94922	-76.58580	557.16193	-221.08838	79.00310	561.91388	-228.10187	-47.29085	551.48352	662.00201	101.22189	551.56018	657.99530	
6151	61.500	-216.33099	21.56058	-169.04118	206.51500	21.68889	-167.59496	-195.44121	18.26670	462.37967	218.81993	20.91024	424.46771	-37.29055	649.67023	-831.28790	-76.47182	557.15778	-221.10466	79.05138	561.84534	-228.16046	-47.05343	551.59131	661.99353	101.30951	551.58728	658.00842	
6152	61.510	-216.29340	21.51322	-169.05325	206.58473	21.67874	-167.58435	-195.36026	18.34884	462.32568	218.98381	20.99354	424.49219	-37.25291	649.68481	-831.39673	-76.25511	557.03973	-221.10471	79.16819	561.74152	-228.20300	-46.76686	551.74432	661.99591	101.41805	551.67749	657.99860	
6153	61.520	-216.21306	21.47426	-168.99594	206.40895	21.58024	-167.70865	-195.34032	18.34573	462.35922	219.01245	21.00992	424.47632	-37.09613	649.54681	-831.38287	-76.07065	556.87854	-221.14507	79.19745	561.68134	-228.25241	-46.65315	551.90558	661.95062	101.55034	551.88324	657.98407	
